<mxfile host="app.diagrams.net" agent="Mozilla/5.0 (Windows NT 10.0; Win64; x64) AppleWebKit/537.36 (KHTML, like Gecko) Chrome/140.0.0.0 Safari/537.36" version="28.2.3">
  <diagram name="Page-1" id="szUcrHI9SdylVtGqFM55">
    <mxGraphModel grid="1" page="1" gridSize="10" guides="1" tooltips="1" connect="1" arrows="1" fold="1" pageScale="1" pageWidth="1200" pageHeight="1600" background="light-dark(#FFFFFF,#FFFFFF)" math="0" shadow="0">
      <root>
        <mxCell id="0" />
        <mxCell id="1" parent="0" />
        <mxCell id="WO32JipdvGdYlU6IkMw0-8" style="edgeStyle=orthogonalEdgeStyle;rounded=0;orthogonalLoop=1;jettySize=auto;html=1;entryX=0.5;entryY=0;entryDx=0;entryDy=0;labelBackgroundColor=none;fontColor=light-dark(#000000, #1b1d1e);strokeColor=light-dark(#000000,#000000);strokeWidth=2;" edge="1" parent="1" source="lBDUN0AQqxMvtpXzoNMG-1" target="lBDUN0AQqxMvtpXzoNMG-3">
          <mxGeometry relative="1" as="geometry" />
        </mxCell>
        <mxCell id="WO32JipdvGdYlU6IkMw0-9" style="edgeStyle=orthogonalEdgeStyle;rounded=0;orthogonalLoop=1;jettySize=auto;html=1;entryX=0.5;entryY=0;entryDx=0;entryDy=0;labelBackgroundColor=none;fontColor=light-dark(#000000, #1b1d1e);strokeColor=light-dark(#000000,#000000);strokeWidth=2;" edge="1" parent="1" source="lBDUN0AQqxMvtpXzoNMG-1" target="lBDUN0AQqxMvtpXzoNMG-2">
          <mxGeometry relative="1" as="geometry" />
        </mxCell>
        <mxCell id="lBDUN0AQqxMvtpXzoNMG-1" value="&lt;font style=&quot;font-size: 16px; color: light-dark(rgb(0, 0, 0), rgb(0, 0, 0));&quot;&gt;I &lt;span&gt;want&lt;/span&gt; data&lt;/font&gt;" style="rounded=1;whiteSpace=wrap;html=1;labelBackgroundColor=none;fillColor=light-dark(#FFFFFF,#FFFFFF);strokeColor=light-dark(#000000,#000000);strokeWidth=2;" vertex="1" parent="1">
          <mxGeometry x="350" y="177" width="210" height="70" as="geometry" />
        </mxCell>
        <mxCell id="WO32JipdvGdYlU6IkMw0-10" style="edgeStyle=orthogonalEdgeStyle;rounded=0;orthogonalLoop=1;jettySize=auto;html=1;entryX=0.5;entryY=0;entryDx=0;entryDy=0;labelBackgroundColor=none;fontColor=light-dark(#000000, #1b1d1e);strokeColor=light-dark(#000000,#000000);strokeWidth=2;" edge="1" parent="1" source="lBDUN0AQqxMvtpXzoNMG-2" target="WO32JipdvGdYlU6IkMw0-6">
          <mxGeometry relative="1" as="geometry">
            <mxPoint x="610" y="320" as="targetPoint" />
            <Array as="points">
              <mxPoint x="611" y="273" />
            </Array>
          </mxGeometry>
        </mxCell>
        <mxCell id="WO32JipdvGdYlU6IkMw0-19" style="edgeStyle=orthogonalEdgeStyle;rounded=0;orthogonalLoop=1;jettySize=auto;html=1;exitX=1;exitY=0.5;exitDx=0;exitDy=0;entryX=0.5;entryY=0;entryDx=0;entryDy=0;labelBackgroundColor=none;fontColor=light-dark(#000000, #1b1d1e);strokeColor=light-dark(#000000,#000000);strokeWidth=2;" edge="1" parent="1" source="lBDUN0AQqxMvtpXzoNMG-2" target="lBDUN0AQqxMvtpXzoNMG-7">
          <mxGeometry relative="1" as="geometry" />
        </mxCell>
        <mxCell id="lBDUN0AQqxMvtpXzoNMG-2" value="I know where it is" style="ellipse;whiteSpace=wrap;html=1;labelBackgroundColor=none;fontColor=light-dark(#000000, #1b1d1e);strokeColor=light-dark(#000000,#000000);fillColor=light-dark(#FFFFFF,#FFFFFF);strokeWidth=2;" vertex="1" parent="1">
          <mxGeometry x="660" y="233" width="120" height="80" as="geometry" />
        </mxCell>
        <mxCell id="WO32JipdvGdYlU6IkMw0-14" style="edgeStyle=orthogonalEdgeStyle;rounded=0;orthogonalLoop=1;jettySize=auto;html=1;exitX=0.5;exitY=1;exitDx=0;exitDy=0;entryX=0.5;entryY=0;entryDx=0;entryDy=0;labelBackgroundColor=none;fontColor=light-dark(#000000, #1b1d1e);strokeColor=light-dark(#000000,#000000);strokeWidth=2;" edge="1" parent="1" source="lBDUN0AQqxMvtpXzoNMG-3" target="WO32JipdvGdYlU6IkMw0-3">
          <mxGeometry relative="1" as="geometry" />
        </mxCell>
        <mxCell id="lBDUN0AQqxMvtpXzoNMG-3" value="I do not know&amp;nbsp;&lt;div&gt;where it is&lt;/div&gt;" style="ellipse;whiteSpace=wrap;html=1;labelBackgroundColor=none;fillColor=light-dark(#FFFFFF,#FFFFFF);fontColor=light-dark(#000000,#000000);labelBorderColor=default;strokeColor=light-dark(#000000,#000000);strokeWidth=2;" vertex="1" parent="1">
          <mxGeometry x="130" y="233" width="120" height="80" as="geometry" />
        </mxCell>
        <mxCell id="WO32JipdvGdYlU6IkMw0-17" style="edgeStyle=orthogonalEdgeStyle;rounded=0;orthogonalLoop=1;jettySize=auto;html=1;exitX=0.5;exitY=1;exitDx=0;exitDy=0;entryX=0.5;entryY=0;entryDx=0;entryDy=0;labelBackgroundColor=none;fontColor=light-dark(#000000, #1b1d1e);strokeColor=light-dark(#000000,#000000);strokeWidth=2;" edge="1" parent="1" source="lBDUN0AQqxMvtpXzoNMG-4" target="WO32JipdvGdYlU6IkMw0-1">
          <mxGeometry relative="1" as="geometry" />
        </mxCell>
        <mxCell id="lBDUN0AQqxMvtpXzoNMG-4" value="&lt;font face=&quot;Helvetica&quot;&gt;&lt;br&gt;&lt;span style=&quot;&quot; data-colorparams=&quot;#000000_null_null&quot; data-colorformula=&quot;THEMEVAL(&amp;quot;TextColor&amp;quot;,RGB(0,0,0))&quot;&gt;Make a pull request on &lt;a href=&quot;https://github.com/moj-analytical-services/data-engineering-database-access&quot;&gt;Data Engineering Database Access&lt;/a&gt; so an approver can give you access to the relevant repository&amp;nbsp;&lt;/span&gt;&lt;/font&gt;&lt;div&gt;&lt;br&gt;&lt;/div&gt;" style="rounded=0;whiteSpace=wrap;html=1;labelBackgroundColor=none;fontColor=light-dark(#000000, #1b1d1e);strokeColor=light-dark(#000000,#000000);fillColor=light-dark(#FFFFFF,#FFFFFF);strokeWidth=2;spacingRight=5;spacingLeft=5;" vertex="1" parent="1">
          <mxGeometry x="525" y="475" width="170" height="105" as="geometry" />
        </mxCell>
        <mxCell id="WO32JipdvGdYlU6IkMw0-12" style="edgeStyle=orthogonalEdgeStyle;rounded=0;orthogonalLoop=1;jettySize=auto;html=1;exitX=1;exitY=0.5;exitDx=0;exitDy=0;entryX=0;entryY=0.5;entryDx=0;entryDy=0;labelBackgroundColor=none;fontColor=light-dark(#000000, #1b1d1e);strokeColor=light-dark(#000000,#000000);strokeWidth=2;" edge="1" parent="1" source="lBDUN0AQqxMvtpXzoNMG-5" target="lBDUN0AQqxMvtpXzoNMG-4">
          <mxGeometry relative="1" as="geometry" />
        </mxCell>
        <mxCell id="lBDUN0AQqxMvtpXzoNMG-5" value="I&#39;ve found what&amp;nbsp;&lt;div&gt;I need&lt;/div&gt;" style="ellipse;whiteSpace=wrap;html=1;labelBackgroundColor=none;fontColor=light-dark(#000000, #1b1d1e);strokeColor=light-dark(#000000,#000000);fillColor=light-dark(#FFFFFF,#FFFFFF);strokeWidth=2;" vertex="1" parent="1">
          <mxGeometry x="330" y="365" width="130" height="75" as="geometry" />
        </mxCell>
        <mxCell id="WO32JipdvGdYlU6IkMw0-20" style="edgeStyle=orthogonalEdgeStyle;rounded=0;orthogonalLoop=1;jettySize=auto;html=1;exitX=0.5;exitY=1;exitDx=0;exitDy=0;entryX=0.5;entryY=0;entryDx=0;entryDy=0;labelBackgroundColor=none;fontColor=light-dark(#000000, #1b1d1e);strokeColor=light-dark(#000000,#000000);strokeWidth=2;" edge="1" parent="1" source="lBDUN0AQqxMvtpXzoNMG-7" target="lBDUN0AQqxMvtpXzoNMG-8">
          <mxGeometry relative="1" as="geometry" />
        </mxCell>
        <mxCell id="lBDUN0AQqxMvtpXzoNMG-7" value="Data is in a user-maintained s3 bucket" style="ellipse;whiteSpace=wrap;html=1;labelBackgroundColor=none;fontColor=light-dark(#000000, #1b1d1e);strokeColor=light-dark(#000000,#000000);fillColor=light-dark(#FFFFFF,#FFFFFF);strokeWidth=2;" vertex="1" parent="1">
          <mxGeometry x="780" y="340" width="140" height="90" as="geometry" />
        </mxCell>
        <mxCell id="WO32JipdvGdYlU6IkMw0-21" style="edgeStyle=orthogonalEdgeStyle;rounded=0;orthogonalLoop=1;jettySize=auto;html=1;exitX=0.5;exitY=1;exitDx=0;exitDy=0;entryX=0.5;entryY=0;entryDx=0;entryDy=0;labelBackgroundColor=none;fontColor=light-dark(#000000, #1b1d1e);strokeColor=light-dark(#000000,#000000);strokeWidth=2;" edge="1" parent="1" source="lBDUN0AQqxMvtpXzoNMG-8" target="WO32JipdvGdYlU6IkMw0-2">
          <mxGeometry relative="1" as="geometry" />
        </mxCell>
        <mxCell id="lBDUN0AQqxMvtpXzoNMG-8" value="Find the bucket admin under &#39;Warehouse data&#39; in Control Panel and ask them&amp;nbsp;&lt;span style=&quot;&quot;&gt;to&amp;nbsp;&lt;/span&gt;&lt;span style=&quot;&quot;&gt;add you or ask &lt;a href=&quot;https://moj.enterprise.slack.com/archives/C4PF7QAJZ&quot;&gt;#ask-analytical-platform&lt;/a&gt; if no admin is listed&lt;/span&gt;" style="rounded=0;whiteSpace=wrap;html=1;labelBackgroundColor=none;fontColor=light-dark(#000000, #1b1d1e);strokeColor=light-dark(#000000,#000000);fillColor=light-dark(#FFFFFF,#FFFFFF);strokeWidth=2;spacingTop=0;spacingLeft=5;spacingRight=5;" vertex="1" parent="1">
          <mxGeometry x="765" y="475" width="170" height="105" as="geometry" />
        </mxCell>
        <mxCell id="WO32JipdvGdYlU6IkMw0-1" value="Query data using&amp;nbsp;&lt;div&gt;your chosen software&lt;/div&gt;" style="rounded=0;whiteSpace=wrap;html=1;labelBackgroundColor=none;fontColor=light-dark(#000000, #1b1d1e);strokeColor=light-dark(#000000,#000000);fillColor=light-dark(#FFFFFF,#FFFFFF);strokeWidth=2;" vertex="1" parent="1">
          <mxGeometry x="525" y="630" width="170" height="90" as="geometry" />
        </mxCell>
        <mxCell id="WO32JipdvGdYlU6IkMw0-2" value="Access data directly&amp;nbsp;&lt;div&gt;from R or Python&lt;/div&gt;" style="rounded=0;whiteSpace=wrap;html=1;labelBackgroundColor=none;fontColor=light-dark(#000000, #1b1d1e);strokeColor=light-dark(#000000,#000000);fillColor=light-dark(#FFFFFF,#FFFFFF);strokeWidth=2;" vertex="1" parent="1">
          <mxGeometry x="765" y="630" width="170" height="90" as="geometry" />
        </mxCell>
        <mxCell id="WO32JipdvGdYlU6IkMw0-13" style="edgeStyle=orthogonalEdgeStyle;rounded=0;orthogonalLoop=1;jettySize=auto;html=1;exitX=1;exitY=0.5;exitDx=0;exitDy=0;labelBackgroundColor=none;fontColor=light-dark(#000000, #1b1d1e);strokeColor=light-dark(#000000,#000000);strokeWidth=2;" edge="1" parent="1" source="WO32JipdvGdYlU6IkMw0-3">
          <mxGeometry relative="1" as="geometry">
            <mxPoint x="330" y="400" as="targetPoint" />
          </mxGeometry>
        </mxCell>
        <mxCell id="WO32JipdvGdYlU6IkMw0-15" style="edgeStyle=orthogonalEdgeStyle;rounded=0;orthogonalLoop=1;jettySize=auto;html=1;exitX=0.5;exitY=1;exitDx=0;exitDy=0;entryX=0.5;entryY=0;entryDx=0;entryDy=0;labelBackgroundColor=none;fontColor=light-dark(#000000, #1b1d1e);strokeColor=light-dark(#000000,#000000);strokeWidth=2;" edge="1" parent="1" source="WO32JipdvGdYlU6IkMw0-3" target="WO32JipdvGdYlU6IkMw0-4">
          <mxGeometry relative="1" as="geometry" />
        </mxCell>
        <mxCell id="WO32JipdvGdYlU6IkMw0-3" value="Check &lt;a href=&quot;https://find-moj-data.service.justice.gov.uk/&quot;&gt;Find MoJ data&lt;/a&gt;" style="rounded=0;whiteSpace=wrap;html=1;labelBackgroundColor=none;fontColor=light-dark(#000000, #1b1d1e);strokeColor=light-dark(#000000,#000000);fillColor=light-dark(#FFFFFF,#FFFFFF);strokeWidth=2;" vertex="1" parent="1">
          <mxGeometry x="105" y="355" width="170" height="90" as="geometry" />
        </mxCell>
        <mxCell id="WO32JipdvGdYlU6IkMw0-16" style="edgeStyle=orthogonalEdgeStyle;rounded=0;orthogonalLoop=1;jettySize=auto;html=1;exitX=0.5;exitY=1;exitDx=0;exitDy=0;entryX=0.5;entryY=0;entryDx=0;entryDy=0;labelBackgroundColor=none;fontColor=light-dark(#000000, #1b1d1e);strokeColor=light-dark(#000000,#000000);strokeWidth=2;" edge="1" parent="1" source="WO32JipdvGdYlU6IkMw0-4" target="WO32JipdvGdYlU6IkMw0-5">
          <mxGeometry relative="1" as="geometry" />
        </mxCell>
        <mxCell id="WO32JipdvGdYlU6IkMw0-4" value="I still do not know" style="ellipse;whiteSpace=wrap;html=1;labelBackgroundColor=none;fillColor=light-dark(#FFFFFF,#FFFFFF);fontColor=light-dark(#000000,#000000);strokeColor=light-dark(#000000,#000000);strokeWidth=2;" vertex="1" parent="1">
          <mxGeometry x="130" y="485" width="120" height="80" as="geometry" />
        </mxCell>
        <mxCell id="WO32JipdvGdYlU6IkMw0-23" style="edgeStyle=orthogonalEdgeStyle;rounded=0;orthogonalLoop=1;jettySize=auto;html=1;exitX=0.5;exitY=1;exitDx=0;exitDy=0;entryX=1;entryY=0;entryDx=0;entryDy=0;labelBackgroundColor=none;fontColor=light-dark(#000000, #1b1d1e);strokeColor=light-dark(#000000,#000000);strokeWidth=2;" edge="1" parent="1" source="WO32JipdvGdYlU6IkMw0-5" target="lBDUN0AQqxMvtpXzoNMG-2">
          <mxGeometry relative="1" as="geometry">
            <mxPoint x="770" y="230" as="targetPoint" />
            <Array as="points">
              <mxPoint x="190" y="755" />
              <mxPoint x="991" y="755" />
              <mxPoint x="991" y="245" />
            </Array>
          </mxGeometry>
        </mxCell>
        <mxCell id="WO32JipdvGdYlU6IkMw0-5" value="Ask in &lt;a href=&quot;https://moj.enterprise.slack.com/archives/C8X3PP1TN&quot;&gt;#ask-data-engineering&lt;/a&gt;" style="rounded=0;whiteSpace=wrap;html=1;labelBackgroundColor=none;fontColor=light-dark(#000000, #1b1d1e);strokeColor=light-dark(#000000,#000000);fillColor=light-dark(#FFFFFF,#FFFFFF);strokeWidth=2;" vertex="1" parent="1">
          <mxGeometry x="105" y="610" width="170" height="90" as="geometry" />
        </mxCell>
        <mxCell id="WO32JipdvGdYlU6IkMw0-18" style="edgeStyle=orthogonalEdgeStyle;rounded=0;orthogonalLoop=1;jettySize=auto;html=1;exitX=0.5;exitY=1;exitDx=0;exitDy=0;entryX=0.5;entryY=0;entryDx=0;entryDy=0;labelBackgroundColor=none;fontColor=light-dark(#000000, #1b1d1e);strokeColor=light-dark(#000000,#000000);strokeWidth=2;" edge="1" parent="1" source="WO32JipdvGdYlU6IkMw0-6" target="lBDUN0AQqxMvtpXzoNMG-4">
          <mxGeometry relative="1" as="geometry" />
        </mxCell>
        <mxCell id="WO32JipdvGdYlU6IkMw0-6" value="&lt;span&gt;Data is in a curated database maintained by Data Engineering&lt;/span&gt;" style="ellipse;whiteSpace=wrap;html=1;labelBackgroundColor=none;fontColor=light-dark(#000000, #1b1d1e);textShadow=1;strokeColor=light-dark(#000000,#000000);fillColor=light-dark(#FFFFFF,#FFFFFF);strokeWidth=2;" vertex="1" parent="1">
          <mxGeometry x="540" y="340" width="140" height="90" as="geometry" />
        </mxCell>
      </root>
    </mxGraphModel>
  </diagram>
</mxfile>
